PathFileType	4	(X/Y/Z)	C:\Users\Basilio\Documents\Thesis Gigler\squatting_fais\c3dfiles\041\SLS_pre_back1\markers_experimental.trc
DataRate	CameraRate	NumFrames	NumMarkers	Units	OrigDataRate	OrigDataStartFrame	OrigNumFrames
200.000000	200.000000	4	62	mm	200.000000	869	1738
Frame#	Time	FHD			LBHD			RBHD			C7			T10			CLAV			LSHO			LUUPA			LMUPA			LDUPA			LLEP			LMEP			LRAD			LUL			LRFIN			RSHO			RUPA1			RMUPA			RDUPA			RLEP			RMEP			RRAD			RUL			RUFIN			LASI			RASI			USACR			LSACR			RSACR			LTHI1			LTHI2			LTHI3			LTHI4			LLFC			LMFC			LTIB1			LTIB2			LTIB3			LTIB4			LLMAL			LMMAL			LHEE			LMT1			LMT2			LMT5			RTHI			RTHI2			RTHI3			RTHI4			RLFC			RMFC			RTIB1			RTIB2			RTIB3			RTIB4			RLMAL			RMMAL			RHEE			RMT1			RMT2			RMT5			*61			
		X1	Y1	Z1	X2	Y2	Z2	X3	Y3	Z3	X4	Y4	Z4	X5	Y5	Z5	X6	Y6	Z6	X7	Y7	Z7	X8	Y8	Z8	X9	Y9	Z9	X10	Y10	Z10	X11	Y11	Z11	X12	Y12	Z12	X13	Y13	Z13	X14	Y14	Z14	X15	Y15	Z15	X16	Y16	Z16	X17	Y17	Z17	X18	Y18	Z18	X19	Y19	Z19	X20	Y20	Z20	X21	Y21	Z21	X22	Y22	Z22	X23	Y23	Z23	X24	Y24	Z24	X25	Y25	Z25	X26	Y26	Z26	X27	Y27	Z27	X28	Y28	Z28	X29	Y29	Z29	X30	Y30	Z30	X31	Y31	Z31	X32	Y32	Z32	X33	Y33	Z33	X34	Y34	Z34	X35	Y35	Z35	X36	Y36	Z36	X37	Y37	Z37	X38	Y38	Z38	X39	Y39	Z39	X40	Y40	Z40	X41	Y41	Z41	X42	Y42	Z42	X43	Y43	Z43	X44	Y44	Z44	X45	Y45	Z45	X46	Y46	Z46	X47	Y47	Z47	X48	Y48	Z48	X49	Y49	Z49	X50	Y50	Z50	X51	Y51	Z51	X52	Y52	Z52	X53	Y53	Z53	X54	Y54	Z54	X55	Y55	Z55	X56	Y56	Z56	X57	Y57	Z57	X58	Y58	Z58	X59	Y59	Z59	X60	Y60	Z60	X61	Y61	Z61	X62	Y62	Z62	

870	4.345	-78.9353485107422	1653.30810546875	-1131.455444335938	-254.5548095703126	1576.720092773438	-1200.779052734375	-230.9469451904297	1585.310424804688	-1049.043823242188	-299.7014465332032	1462.846435546875	-1130.613525390625	-428.6819152832032	1185.447387695313	-1104.365356445313	nan	nan	nan	-227.0237426757813	1465.94287109375	-1259.024291992188	-118.7061157226563	1458.249877929688	-1378.202270507813	-76.58123779296876	1464.733642578125	-1355.184936523438	-58.31128692626955	1457.76904296875	-1413.438354492188	-11.92390727996826	1451.242919921875	-1428.458374023438	18.97179031372071	1373.968872070313	-1402.607543945313	269.6194458007813	1466.64111328125	-1410.304077148438	253.860092163086	1469.408203125	-1482.2939453125	330.9685363769532	1511.894775390625	-1420.33447265625	-209.4289093017579	1474.068481445313	-1017.039733886719	-63.48374938964845	1467.730712890625	-906.1565551757815	-46.10450744628907	1491.124877929688	-947.8447875976565	4.494445323944093	1487.693237304688	-915.6729125976565	49.13359451293947	1491.061401367188	-918.4944458007815	67.95315551757814	1409.216186523438	-940.3560791015627	308.5326843261719	1491.223266601563	-1004.730163574219	311.4491882324219	1509.982666015625	-931.096130371094	391.5593872070314	1510.73583984375	-1013.703735351563	-315.5376586914063	959.3031005859377	-1187.838745117188	-352.2589721679688	954.0835571289065	-965.5964965820315	-479.2611389160157	1081.299926757813	-1101.092529296875	-498.295379638672	1060.384155273438	-1131.161376953125	-508.2475585937501	1060.888061523438	-1076.222778320313	-379.2703857421876	771.765563964844	-1259.883422851563	-315.3090820312501	718.1964721679689	-1246.132202148438	-275.9539794921876	739.7857666015626	-1232.614013671875	-319.5905761718751	657.4921875000001	-1231.43994140625	-239.1646423339844	507.0293273925782	-1192.983154296875	-241.6775512695313	504.544891357422	-1076.59130859375	-249.8669738769532	325.1452331542969	-1111.45556640625	-301.1605529785157	285.1013488769532	-1173.966552734375	-268.4519042968751	277.6086730957032	-1143.687622070313	-293.0652465820313	208.7673492431641	-1101.06298828125	-371.8563537597657	126.9111328125	-1138.250244140625	-339.7511901855469	139.3456726074219	-1054.627685546875	-443.8695678710939	111.1716079711914	-1097.100341796875	-241.1250000000001	64.31919860839845	-1050.19384765625	-229.7174987792969	56.38259124755861	-1094.278442382813	-272.2533569335938	40.31209564208985	-1152.11865234375	-522.0085449218751	724.5727539062501	-903.3345336914065	-494.847625732422	664.2169799804689	-894.4774169921877	-462.1750488281251	658.9840087890626	-897.8570556640627	-535.2307128906251	590.7815551757814	-909.206970214844	-562.6392211914064	492.8449096679689	-908.267028808594	-556.5288085937501	456.5975036621095	-1018.710205078125	-686.9880371093751	385.2453918457032	-908.958190917969	-793.1235961914065	426.1257324218751	-908.7028808593752	-773.8332519531252	383.6835327148438	-902.8846435546877	-804.4724121093752	337.7826538085938	-925.8553466796877	-937.418395996094	332.8719177246094	-918.3311157226565	-899.559020996094	308.9502563476563	-991.6156005859377	-1000.088745117188	352.3808593750001	-975.975280761719	-879.0545654296877	172.87744140625	-958.1906738281252	-877.473571777344	175.3364715576172	-904.8704223632815	-925.1660766601565	201.8642730712891	-865.9272460937502	-4216.842773437501	853.0882568359377	-3944.743164062501	
871	4.350000000000001	-78.51828002929689	1652.249267578125	-1131.493774414063	-254.1673278808594	1575.888793945313	-1200.753051757813	-230.569320678711	1584.475708007813	-1049.186401367188	-299.4158325195313	1462.054565429688	-1130.56396484375	-428.8186950683595	1184.973266601563	-1104.3408203125	nan	nan	nan	-226.7819519042969	1465.2392578125	-1258.939331054688	-118.7420501708985	1457.513427734375	-1378.131225585938	-76.4065399169922	1463.788452148438	-1355.067749023438	-58.43180084228517	1457.194458007813	-1413.637939453125	-11.72078514099121	1450.15771484375	-1428.4033203125	19.09661865234375	1372.935302734375	-1402.663818359375	269.5545959472657	1465.728759765625	-1410.3330078125	253.9911041259766	1468.419189453125	-1482.303466796875	331.0907287597657	1510.939086914063	-1420.312866210938	-209.0932159423829	1473.32421875	-1016.986022949219	-62.79252243041994	1466.914672851563	-906.1799926757815	-45.91057968139649	1490.247314453125	-948.0583496093752	4.704565525054933	1486.73193359375	-915.7546997070315	49.88407135009767	1490.465698242188	-919.2527465820315	68.11109161376955	1408.141357421875	-940.4377441406252	308.8641357421876	1490.013305664063	-1005.00830078125	311.7905883789063	1508.84326171875	-931.6457519531252	392.1185607910157	1509.061401367188	-1014.161682128906	-316.0702819824219	958.592712402344	-1187.6826171875	-352.8944091796876	953.455017089844	-965.5232543945315	-479.7100830078126	1080.890380859375	-1101.0791015625	-498.7076416015626	1059.9599609375	-1131.075805664063	-508.6828613281251	1060.474487304688	-1076.20361328125	-379.4965820312501	771.3238525390627	-1259.893432617188	-315.4896545410157	717.9465942382814	-1246.20654296875	-276.0955200195313	739.6672973632814	-1232.705810546875	-319.6659545898438	657.2349853515626	-1231.4501953125	-238.9268798828126	506.9393310546876	-1193.000610351563	-241.6325683593751	504.4125366210939	-1076.845092773438	-249.6657104492188	325.1004943847657	-1111.517333984375	-300.9360351562501	284.9674682617188	-1174.020385742188	-268.2768554687501	277.5021667480469	-1143.811279296875	-293.0605468750001	208.7457427978516	-1101.100708007813	-371.8949279785157	126.8881454467774	-1138.317626953125	-339.6745910644532	139.3590698242188	-1054.732055664063	-443.8695678710939	111.1716079711914	-1097.100341796875	-241.1520996093751	64.36264038085939	-1050.225463867188	-229.6389312744141	56.41202926635744	-1094.283081054688	-272.3163452148438	40.32489395141602	-1152.116821289063	-522.5767211914064	723.8712768554689	-903.5570068359377	-495.2527160644532	663.6101074218751	-894.7155761718752	-462.7356567382814	658.3532714843751	-897.9550781250002	-535.4760742187501	590.3017578125001	-909.4468383789065	-562.9621582031251	492.0528564453126	-908.4265136718752	-556.5879516601564	455.8732299804689	-1018.977966308594	-687.1684570312501	384.6500549316407	-909.3045043945315	-793.438659667969	425.472625732422	-909.1670532226565	-773.9251708984377	382.8922119140626	-903.2644042968752	-804.8172607421877	336.7779846191407	-925.988464355469	-937.5104980468752	332.2336730957032	-919.0411376953127	-899.4022216796877	308.0236206054688	-992.1005859375002	-1000.246643066406	351.4060974121094	-976.6951904296877	-878.698181152344	172.2437744140625	-958.5093383789065	-877.3029785156252	174.7433776855469	-905.2319335937502	-925.0908203125002	201.1511383056641	-866.3938598632815	-4216.935546875001	853.108581542969	-3944.740966796876	
872	4.355	-77.88739013671876	1651.227294921875	-1131.522094726563	-253.8289794921876	1575.041015625	-1200.748779296875	-230.4255523681641	1583.548706054688	-1049.05224609375	-299.1559753417969	1461.285400390625	-1130.58984375	-429.1038513183595	1184.510620117188	-1104.289794921875	nan	nan	nan	-226.4953765869141	1464.409790039063	-1258.913818359375	-118.4124908447266	1456.592895507813	-1378.112548828125	-75.46731567382814	1462.886474609375	-1355.079223632813	-58.20634841918947	1456.243530273438	-1413.549560546875	-11.53274822235108	1449.18359375	-1428.359741210938	19.26316070556641	1372.079956054688	-1402.6201171875	269.6933593750001	1464.744384765625	-1410.339599609375	254.1361389160157	1467.427978515625	-1482.320190429688	331.2637634277344	1509.869506835938	-1420.280029296875	-208.7548980712891	1472.549682617188	-1017.087768554688	-62.70030975341798	1466.169067382813	-906.2346191406252	-45.34466934204102	1489.447387695313	-948.219421386719	5.033027172088624	1485.764892578125	-915.934509277344	50.38127517700197	1489.3125	-919.4456176757815	68.6301956176758	1407.3447265625	-940.811218261719	309.0546569824219	1488.649169921875	-1005.439453125	312.2914123535157	1507.590698242188	-932.0244750976565	392.1981506347657	1507.781005859375	-1014.509033203125	-317.1332092285157	958.257019042969	-1187.56787109375	-353.3773498535157	952.7024536132815	-965.5449829101565	-480.1723937988282	1080.363037109375	-1100.920776367188	-499.1931457519532	1059.419799804688	-1131.035766601563	-508.9752197265626	1059.91064453125	-1075.987548828125	-379.7766418457032	770.8936157226565	-1259.908447265625	-315.6983947753907	717.7308959960939	-1246.30029296875	-276.3295898437501	739.5136108398439	-1232.786865234375	-319.6879272460938	657.0372924804689	-1231.501953125	-238.6583099365235	506.8251037597657	-1193.100830078125	-241.4796142578126	504.3974609375001	-1076.876831054688	-249.4277038574219	325.0134277343751	-1111.622436523438	-300.8587341308594	284.9132995605469	-1174.080200195313	-268.2570495605469	277.4526977539063	-1143.840942382813	-293.0393981933594	208.7498474121094	-1101.139892578125	-371.9757690429688	126.85888671875	-1138.411499023438	-339.6627197265626	139.3824768066407	-1054.747436523438	-444.094451904297	111.4672393798828	-1097.111328125	-241.167465209961	64.37475585937501	-1050.265502929688	-229.654525756836	56.44993209838869	-1094.286254882813	-272.3080139160157	40.32650756835938	-1152.180541992188	-523.3749389648439	723.2581787109376	-903.4154052734377	-495.6364135742189	662.9766235351564	-894.9545898437502	-462.9640502929689	657.7667846679689	-898.1441650390627	-535.9447021484376	589.5368652343751	-909.7824707031252	-563.1364746093751	491.3221130371095	-908.8493652343752	-556.8333740234376	455.258758544922	-1019.158935546875	-687.2664794921876	383.7326965332032	-909.759948730469	-793.5666503906252	424.7556152343751	-909.7728271484377	-774.2217407226565	382.1516723632813	-903.8408813476565	-804.9748535156252	336.0357055664063	-926.5175781250002	-937.678894042969	331.4364624023438	-919.6455688476565	-899.6260375976565	307.2706909179688	-992.6331787109377	-1000.391723632813	350.4142456054688	-977.4549560546877	-878.5105590820315	171.7574768066407	-959.007019042969	-876.9590454101565	174.2754516601563	-905.776794433594	-924.980407714844	200.6716308593751	-866.8807373046877	-4216.770019531251	853.0759887695315	-3944.710449218751	
873	4.36	-77.61666107177736	1650.172973632813	-1131.344604492188	-253.5973052978516	1574.073120117188	-1200.740234375	-230.1447753906251	1582.697143554688	-1048.970825195313	-298.9698486328126	1460.69287109375	-1130.674926757813	-429.3782653808595	1184.00439453125	-1104.162353515625	nan	nan	nan	-226.3063659667969	1463.595336914063	-1258.83349609375	-118.0767898559571	1455.6455078125	-1378.085327148438	-75.23929595947267	1461.865600585938	-1355.052978515625	-57.86256408691408	1455.302490234375	-1413.27978515625	-11.34203910827637	1448.426391601563	-1428.361083984375	19.16814422607422	1371.244384765625	-1402.6845703125	269.8986206054688	1463.579223632813	-1410.384155273438	254.4949951171876	1466.387084960938	-1482.410034179688	331.3757934570313	1508.9287109375	-1420.249389648438	-208.4708709716797	1471.705688476563	-1017.255737304688	-62.28170013427736	1465.205810546875	-906.4591064453127	-44.90392684936524	1488.481811523438	-948.4473876953127	5.384322166442872	1484.933837890625	-916.1611938476565	50.292537689209	1488.290161132813	-919.6243286132815	68.88412475585939	1405.997802734375	-940.7601318359377	309.5025024414063	1487.40380859375	-1005.92529296875	312.7236633300782	1506.347778320313	-932.3178710937502	392.5850219726564	1506.159423828125	-1014.904235839844	-317.7258911132813	957.6730957031252	-1187.501342773438	-353.9027709960938	952.044128417969	-965.5359497070315	-480.8084411621095	1080.165893554688	-1100.802124023438	-499.6033630371095	1058.96240234375	-1130.984497070313	-509.5026855468751	1059.385375976563	-1075.817626953125	-379.9223022460938	770.5284423828127	-1260.0087890625	-315.8436584472657	717.4750976562501	-1246.359985351563	-276.5159606933594	739.3865966796876	-1232.901733398438	-319.8074340820313	656.8467407226564	-1231.540283203125	-238.4690399169922	506.7251281738282	-1193.165649414063	-241.3431854248047	504.4298706054689	-1076.938354492188	-249.412338256836	324.9478149414063	-1111.693481445313	-300.7050170898438	284.5352783203126	-1174.249877929688	-268.1927795410157	277.4404907226563	-1144.044189453125	-293.0428161621094	208.6649475097657	-1101.210083007813	-371.9948730468751	126.812484741211	-1138.529052734375	-339.6743164062501	139.3824157714844	-1054.833984375	-443.9273376464845	111.136100769043	-1097.21484375	-241.1294097900391	64.43851470947267	-1050.308959960938	-229.6329650878907	56.37141418457033	-1094.2353515625	-272.3357543945313	40.31380844116212	-1152.183227539063	-523.4108886718751	722.5768432617189	-903.9104614257815	-496.3799438476564	662.2817993164064	-895.0632324218752	-463.512176513672	657.0748291015626	-898.2915039062502	-536.1298828125001	588.7815551757814	-909.9923095703127	-563.2515869140626	490.7137145996095	-909.109069824219	-556.9667968750001	454.646209716797	-1019.456970214844	-687.3422241210939	383.0135192871094	-910.5354614257815	-793.7241821289065	423.9973449707032	-910.3867797851565	-774.272155761719	381.4315185546876	-904.4475708007815	-804.8686523437502	335.5032653808594	-926.8459472656252	-937.7656250000002	330.7353820800782	-920.4299926757815	-899.6286621093752	306.6284179687501	-993.2725219726565	-1000.747619628906	349.6655883789063	-978.1633911132815	-878.4470214843752	171.2402648925782	-959.463562011719	-876.749694824219	173.699935913086	-906.3676757812502	-924.7178344726565	200.1242828369141	-867.5086059570315	-4216.846191406251	853.1022949218752	-3944.827392578126	
